<svg width="35" height="35" viewBox="0 0 35 35" fill="none" xmlns="http://www.w3.org/2000/svg">
<path d="M20.7804 28.4365V21.8738C20.7804 21.5838 20.6652 21.3056 20.4601 21.1004C20.255 20.8953 19.9768 20.7801 19.6867 20.7801H15.3117C15.0216 20.7801 14.7434 20.8953 14.5383 21.1004C14.3332 21.3056 14.2179 21.5838 14.2179 21.8738V28.4365C14.2179 28.7265 14.1027 29.0047 13.8976 29.2098C13.6926 29.4149 13.4144 29.5302 13.1243 29.5302L6.56264 29.5311C6.41899 29.5311 6.27675 29.5028 6.14403 29.4479C6.01132 29.3929 5.89073 29.3124 5.78915 29.2108C5.68757 29.1092 5.60699 28.9886 5.55202 28.8559C5.49705 28.7232 5.46875 28.581 5.46875 28.4373V15.7963C5.46875 15.6439 5.50059 15.4932 5.56223 15.3538C5.62387 15.2145 5.71395 15.0895 5.82669 14.987L16.7634 5.04281C16.9648 4.85976 17.2271 4.75832 17.4992 4.75831C17.7713 4.7583 18.0337 4.85972 18.235 5.04276L29.1733 14.987C29.286 15.0895 29.3761 15.2145 29.4378 15.3538C29.4994 15.4932 29.5313 15.6439 29.5312 15.7963V28.4373C29.5313 28.581 29.503 28.7232 29.448 28.8559C29.393 28.9886 29.3124 29.1092 29.2108 29.2108C29.1093 29.3124 28.9887 29.3929 28.856 29.4479C28.7232 29.5028 28.581 29.5311 28.4374 29.5311L21.8741 29.5302C21.584 29.5302 21.3058 29.4149 21.1007 29.2098C20.8957 29.0047 20.7804 28.7265 20.7804 28.4365V28.4365Z" stroke="#111827" stroke-width="2.34375" stroke-linecap="round" stroke-linejoin="round"/>
</svg>
