<svg width="185" height="174" viewBox="0 0 185 174" fill="none" xmlns="http://www.w3.org/2000/svg">
<path d="M153.115 135.313H151.818H150.893H150.153C146.08 135.313 140.158 135.313 135.344 129.575C132.937 126.798 131.642 123.095 131.642 119.393V103.845C131.642 99.4017 129.79 95.1446 126.829 91.9978C120.35 85.5183 116.834 77.0044 116.834 67.749C116.834 58.3089 120.722 49.2383 127.755 42.7588C133.493 37.3914 140.713 34.2432 148.487 33.6882H150.894H153.301C161.075 34.2435 168.294 37.3901 174.032 42.7588C180.881 49.2383 184.953 58.3075 184.953 67.749C184.953 76.8196 181.436 85.52 174.958 91.9978C171.812 95.1444 170.146 99.4014 170.146 103.66V119.395C170.146 123.096 168.849 126.614 166.444 129.576C162.184 134.942 156.817 135.313 153.115 135.313H153.115ZM151.078 131.24H152.004C155.336 131.24 159.779 131.425 163.481 126.983C165.146 124.947 166.257 122.171 166.257 119.579V104.031C166.257 98.4772 168.478 93.1097 172.365 89.2218C178.103 83.4838 181.25 76.0785 181.25 67.9351C181.25 59.6056 177.733 51.6453 171.624 45.907C166.071 40.724 158.851 37.7619 151.077 37.7619C143.487 37.7619 136.268 40.538 130.53 45.907C124.422 51.645 120.904 59.6053 120.904 67.9351C120.904 75.8941 124.051 83.4838 129.789 89.2218C133.677 93.1097 135.898 98.4772 135.898 103.845V119.579C135.898 122.356 136.824 124.947 138.674 126.983C142.191 131.426 146.448 131.24 150.336 131.24H151.078C150.892 131.24 151.078 131.24 151.078 131.24H151.078Z" fill="#1E3A8A"/>
<path d="M153.67 144.568H148.303C144.785 144.568 142.009 141.792 142.009 138.275L142.008 133.276C142.008 132.166 142.934 131.24 144.044 131.24C145.155 131.24 146.08 132.166 146.08 133.276V138.275C146.08 139.385 147.006 140.495 148.301 140.495H153.67C154.781 140.495 155.891 139.57 155.891 138.275V133.276C155.891 132.166 156.817 131.24 157.927 131.24C159.038 131.24 159.964 132.166 159.964 133.276V138.275C159.964 141.792 157.187 144.568 153.67 144.568H153.67Z" fill="#1E3A8A"/>
<path d="M143.304 86.074C142.749 86.074 142.194 85.8893 141.823 85.5188C141.083 84.7789 141.083 83.4825 141.823 82.5567L153.485 70.8946H138.492L157.002 52.3839C157.742 51.644 159.039 51.644 159.964 52.3839C160.704 53.1238 160.704 54.4201 159.964 55.3459L148.487 66.6375H163.48L144.785 85.5188C144.414 85.8893 143.859 86.074 143.304 86.074H143.304Z" fill="#1E3A8A"/>
<path d="M36.6821 124.206C27.7973 124.206 18.9112 120.504 12.6178 113.654C2.25215 102.363 1.14151 85.5177 9.84176 73.1158C9.28654 72.5606 8.73131 72.0054 8.17609 71.4502C2.62253 65.3426 -0.339517 57.3823 0.0310288 49.0528C0.401574 40.7233 3.91895 33.1336 10.2123 27.58C15.0247 23.1371 21.1333 20.3608 27.6127 19.6211C28.9078 8.51395 38.1632 0 49.4547 0C58.5253 0 66.6691 5.55356 70.0017 13.8831C82.4039 11.6622 95.361 16.104 103.876 25.3594C116.463 39.0577 116.834 60.3447 104.802 74.598C111.651 87.1846 109.059 103.104 98.3227 112.915C89.8071 120.69 77.591 123.281 66.4842 119.209C65.3738 118.838 64.8185 117.728 65.1878 116.617C65.5584 115.507 66.6689 114.951 67.7793 115.321C77.4052 118.652 87.9557 116.617 95.3606 109.767C104.987 100.882 107.023 86.444 100.173 75.3372C99.6179 74.5973 99.8025 73.4856 100.358 72.9304C111.834 60.3437 111.834 40.7214 100.358 28.1344C92.3988 19.4343 80.1813 15.5477 68.7037 18.1392C67.5932 18.3239 66.6674 17.7687 66.2969 16.6582C64.076 9.06848 57.0415 3.88547 49.0826 3.88547C39.2719 3.88547 31.4977 11.4752 31.1271 21.2859C31.1271 22.3964 30.2013 23.3222 29.0909 23.3222C22.7976 23.6927 17.0596 26.0982 12.4319 30.3566C7.06441 35.169 3.91626 41.8329 3.73182 49.0521C3.36124 56.2713 5.95271 63.1199 10.7662 68.4887C11.5061 69.2286 12.4319 70.1544 13.3577 70.8955C14.6541 71.82 14.84 73.1164 14.0988 74.0422C5.58455 84.9632 6.13987 100.512 15.5799 110.879C24.2799 120.319 38.3477 122.91 49.8247 116.987C50.9352 116.432 52.0456 116.802 52.6008 117.913C53.156 118.839 52.7855 120.134 51.675 120.689C46.8626 123.096 41.8643 124.206 36.6816 124.206L36.6821 124.206Z" fill="#1E3A8A"/>
<path d="M79.0718 174C74.8147 174 68.52 171.964 64.6334 167.521C59.6352 161.967 57.0437 154.377 57.0437 146.603V53.6792C57.0437 52.5687 57.9695 51.6429 59.0799 51.6429C60.1904 51.6429 61.1162 52.5687 61.1162 53.6792V146.418C61.1162 153.267 63.523 159.746 67.7801 164.744C70.7421 168.075 75.739 169.742 79.2564 169.742C86.66 169.742 91.843 166.596 98.3224 161.413C107.948 153.638 108.318 146.233 105.726 142.347C103.69 139.385 99.6175 137.719 95.3604 140.126C89.9929 143.088 89.2519 149.936 91.288 154.935C91.8433 156.6 92.9537 158.081 94.0641 159.562C94.804 160.488 94.6193 161.783 93.8795 162.524C92.9537 163.264 91.6586 163.08 90.9175 162.34C89.4364 160.488 88.326 158.638 87.4001 156.602C84.8086 149.938 85.9191 140.682 93.3242 136.61C99.0622 133.463 105.726 134.944 109.243 140.127C112.761 145.495 112.945 155.121 101.098 164.562C94.9908 169.372 88.5117 174 79.0716 174L79.0718 174Z" fill="#1E3A8A"/>
<path d="M117.389 173.815C108.873 173.815 101.285 171.408 95.3608 166.781C94.435 166.041 94.2503 164.744 94.9902 163.819C95.7301 162.893 97.0264 162.708 97.9522 163.448C105.727 169.556 116.648 171.038 128.865 168.076C140.713 165.3 148.857 154.749 148.857 142.532C148.857 141.421 149.783 140.496 150.893 140.496C152.003 140.496 152.929 141.421 152.929 142.532C152.929 156.6 143.489 168.817 129.976 172.15C125.718 173.26 121.461 173.815 117.389 173.815L117.389 173.815Z" fill="#1E3A8A"/>
<path d="M59.0802 103.659C57.9697 103.659 57.0439 102.733 57.0439 101.623C57.0439 100.513 57.9697 99.5867 59.0802 99.5867C67.7802 99.5867 74.9994 92.5523 74.9994 83.6675V76.0777C74.9994 74.9673 75.9252 74.0415 77.0357 74.0415C78.1461 74.0415 79.0719 74.9673 79.0719 76.0777V83.6675C79.0719 94.5898 70.0013 103.659 59.0803 103.659L59.0802 103.659Z" fill="#1E3A8A"/>
<path d="M59.08 82.9272C43.3452 82.9272 30.5741 70.1544 30.5741 54.4213V43.3142C30.5741 42.2037 31.4999 41.2779 32.6104 41.2779C33.7208 41.2779 34.6466 42.2037 34.6466 43.3142V54.4213C34.6466 67.749 45.5676 78.67 58.8954 78.67C60.0058 78.67 60.9316 79.5959 60.9316 80.7063C61.1162 82.0014 60.1904 82.9272 59.08 82.9272Z" fill="#1E3A8A"/>
</svg>
