<svg width="203" height="202" viewBox="0 0 203 202" fill="none" xmlns="http://www.w3.org/2000/svg">
<path d="M1.55557 115.269C1.00345 115.517 0.354078 115.272 0.10418 114.719C-0.1442 114.167 0.101188 113.518 0.653312 113.268C32.9443 98.7453 67.1879 105.971 101.428 113.195C135.321 120.347 169.212 127.498 200.855 113.268C201.407 113.02 202.056 113.265 202.306 113.817C202.555 114.369 202.309 115.019 201.757 115.269C169.466 129.791 135.222 122.566 100.982 115.342C67.0889 108.19 33.1988 101.039 1.55557 115.269ZM160.032 55.1269C160.032 54.4042 161.132 54.4042 161.132 55.1269C161.132 59.4764 157.605 63.003 153.256 63.003C152.533 63.003 152.533 61.9033 153.256 61.9033C156.999 61.9033 160.034 58.8688 160.034 55.1253L160.032 55.1269ZM161.62 41.6771C164.151 46.4039 166.077 52.4008 166.077 55.8585C166.077 62.535 160.664 67.9481 153.987 67.9481C147.311 67.9481 141.898 62.5346 141.898 55.8585C141.898 52.3992 143.824 46.4019 146.355 41.6771C151.619 31.8513 156.358 31.8513 161.622 41.6771H161.62ZM159.688 42.708C155.273 34.4649 152.702 34.4649 148.286 42.708C145.906 47.1521 144.095 52.715 144.095 55.8602C144.095 61.3232 148.524 65.7519 153.987 65.7519C159.45 65.7519 163.879 61.3232 163.879 55.8602C163.879 52.7166 162.068 47.1521 159.688 42.708ZM50.7044 55.1271C50.7044 54.4044 51.8042 54.4044 51.8042 55.1271C51.8042 59.4765 48.2775 63.0032 43.9281 63.0032C43.2054 63.0032 43.2054 61.9034 43.9281 61.9034C47.6717 61.9034 50.706 58.869 50.706 55.1255L50.7044 55.1271ZM52.292 41.6773C54.8236 46.404 56.7494 52.4009 56.7494 55.8587C56.7494 62.5351 51.3359 67.9483 44.6598 67.9483C37.9834 67.9483 32.5702 62.5347 32.5702 55.8587C32.5702 52.3993 34.4959 46.4021 37.0277 41.6773C42.2915 31.8514 47.0301 31.8514 52.2939 41.6773H52.292ZM50.3603 42.7082C45.9449 34.4651 43.3743 34.4651 38.9586 42.7082C36.5781 47.1522 34.7677 52.7152 34.7677 55.8603C34.7677 61.3233 39.1965 65.7521 44.6594 65.7521C50.1224 65.7521 54.5512 61.3233 54.5512 55.8603C54.5512 52.7167 52.7407 47.1522 50.3603 42.7082ZM132.259 20.8192C132.259 20.0965 133.359 20.0965 133.359 20.8192C133.359 25.1686 129.832 28.6953 125.482 28.6953C124.76 28.6953 124.76 27.5955 125.482 27.5955C129.226 27.5955 132.26 24.5611 132.26 20.8176L132.259 20.8192ZM133.846 7.36937C136.378 12.0961 138.304 18.093 138.304 21.5508C138.304 28.2272 132.89 33.6404 126.214 33.6404C119.538 33.6404 114.125 28.2268 114.125 21.5508C114.125 18.0914 116.05 12.0942 118.582 7.36937C123.846 -2.45646 128.584 -2.45646 133.848 7.36937H133.846ZM131.915 8.40029C127.499 0.157202 124.929 0.157202 120.513 8.40029C118.132 12.8444 116.322 18.4073 116.322 21.5525C116.322 27.0154 120.751 31.4442 126.214 31.4442C131.677 31.4442 136.106 27.0154 136.106 21.5525C136.106 18.4088 134.295 12.8444 131.915 8.40029ZM78.0855 20.8193C78.0855 20.0966 79.1853 20.0966 79.1853 20.8193C79.1853 25.1688 75.6586 28.6955 71.3091 28.6955C70.5865 28.6955 70.5865 27.5957 71.3091 27.5957C75.0528 27.5957 78.0871 24.5613 78.0871 20.8178L78.0855 20.8193ZM79.6731 7.36952C82.2047 12.0963 84.1305 18.0932 84.1305 21.5509C84.1305 28.2274 78.717 33.6405 72.0409 33.6405C65.3649 33.6405 59.9513 28.227 59.9513 21.5509C59.9513 18.0916 61.877 12.0944 64.4088 7.36952C69.6726 -2.4563 74.4112 -2.4563 79.675 7.36952H79.6731ZM77.7414 8.40045C73.326 0.157355 70.7554 0.157355 66.3397 8.40045C63.9592 12.8445 62.1488 18.4075 62.1488 21.5526C62.1488 27.0156 66.5776 31.4443 72.0405 31.4443C77.5035 31.4443 81.9322 27.0156 81.9322 21.5526C81.9322 18.409 80.1217 12.8445 77.7414 8.40045ZM105.19 55.1279C105.19 54.4052 106.29 54.4052 106.29 55.1279C106.29 59.4773 102.763 63.004 98.4139 63.004C97.6912 63.004 97.6912 61.9043 98.4139 61.9043C102.158 61.9043 105.192 58.8698 105.192 55.1263L105.19 55.1279ZM106.778 41.6781C109.309 46.4049 111.235 52.4018 111.235 55.8595C111.235 62.536 105.822 67.9491 99.1456 67.9491C92.4692 67.9491 87.056 62.5356 87.056 55.8595C87.056 52.4002 88.9817 46.4029 91.5135 41.6781C96.7773 31.8523 101.516 31.8523 106.78 41.6781H106.778ZM104.846 42.709C100.431 34.4659 97.8601 34.4659 93.4444 42.709C91.0639 47.1531 89.2535 52.716 89.2535 55.8612C89.2535 61.3242 93.6823 65.7529 99.1453 65.7529C104.608 65.7529 109.037 61.3242 109.037 55.8612C109.037 52.7176 107.226 47.1531 104.846 42.709ZM100.243 198.362L105.754 192.852C106.776 191.83 108.331 193.384 107.309 194.406L100.037 201.678C99.6078 202.107 98.912 202.107 98.4826 201.678L91.2109 194.406C90.1889 193.384 91.7436 191.83 92.7655 192.852L98.0473 198.133V153.796C98.0473 152.351 100.245 152.351 100.245 153.796V198.363L100.243 198.362ZM73.1385 191.01L78.5506 185.598C79.5725 184.576 81.1271 186.131 80.1052 187.153L72.9411 194.317C72.4473 194.81 71.6858 195.012 71.1576 194.306L64.0054 187.154C62.9834 186.132 64.5381 184.577 65.56 185.599L70.9406 190.98V148.612C70.9406 147.166 73.1387 147.166 73.1387 148.612V191.011L73.1385 191.01ZM127.347 191.023L132.774 185.596C133.796 184.575 135.35 186.129 134.328 187.151L127.057 194.423C126.627 194.852 125.932 194.852 125.502 194.423L118.23 187.151C117.208 186.129 118.763 184.575 119.785 185.596L125.151 190.962V159.229C125.151 157.784 127.349 157.784 127.349 159.229V191.022L127.347 191.023ZM154.452 180.877L159.889 175.44C160.911 174.418 162.466 175.973 161.444 176.995L154.172 184.266C153.743 184.696 153.047 184.696 152.617 184.266L145.346 176.995C144.324 175.973 145.878 174.418 146.9 175.44L152.255 180.795V162.25C152.255 160.805 154.453 160.805 154.453 162.25V180.879L154.452 180.877ZM46.0351 180.835L51.4307 175.44C52.4526 174.418 54.0073 175.973 52.9853 176.995L45.7194 184.261C45.2899 184.699 44.5807 184.697 44.1513 184.261L36.8853 176.995C35.8634 175.973 37.418 174.418 38.4399 175.44L43.8355 180.835V145.785C43.8355 144.34 46.0335 144.34 46.0335 145.785V180.835H46.0351ZM154.452 115.243C154.452 116.689 152.254 116.689 152.254 115.243V81.3634C152.254 80.7559 152.746 80.2636 153.353 80.2636C153.961 80.2636 154.453 80.7559 154.453 81.3634V115.243H154.452ZM127.347 112.393C127.347 113.838 125.149 113.838 125.149 112.393V81.215C125.149 79.7696 127.347 79.7696 127.347 81.215V112.393ZM100.242 106.943C100.242 108.389 98.0439 108.389 98.0439 106.943V81.2881C98.0439 79.8428 100.242 79.8428 100.242 81.2881V106.943ZM73.137 101.923C73.137 103.369 70.939 103.369 70.939 101.923V81.2165C70.939 79.7711 73.137 79.7711 73.137 81.2165V101.923ZM46.0321 98.7469C46.0321 100.192 43.8341 100.192 43.8341 98.7469V81.29C43.8341 79.8447 46.0321 79.8447 46.0321 81.29V98.7469ZM184.537 143.532C185.346 143.532 186.002 144.189 186.002 144.997C186.002 145.807 185.345 146.462 184.537 146.462C183.727 146.462 183.072 145.805 183.072 144.997C183.072 144.188 183.729 143.532 184.537 143.532ZM184.537 144.632C184.335 144.632 184.17 144.797 184.17 144.999C184.17 145.201 184.335 145.365 184.537 145.365C184.739 145.365 184.903 145.201 184.903 144.999C184.903 144.797 184.739 144.632 184.537 144.632ZM169.041 145.865C169.851 145.865 170.506 146.522 170.506 147.33C170.506 148.139 169.849 148.795 169.041 148.795C168.232 148.795 167.577 148.138 167.577 147.33C167.577 146.52 168.233 145.865 169.041 145.865ZM169.041 146.965C168.839 146.965 168.675 147.129 168.675 147.331C168.675 147.533 168.839 147.698 169.041 147.698C169.243 147.698 169.408 147.533 169.408 147.331C169.408 147.129 169.243 146.965 169.041 146.965ZM153.365 146.067C154.175 146.067 154.83 146.724 154.83 147.532C154.83 148.341 154.173 148.997 153.365 148.997C152.556 148.997 151.9 148.34 151.9 147.532C151.9 146.722 152.557 146.067 153.365 146.067ZM153.365 147.167C153.163 147.167 152.998 147.331 152.998 147.533C152.998 147.735 153.163 147.9 153.365 147.9C153.567 147.9 153.732 147.735 153.732 147.533C153.732 147.331 153.567 147.167 153.365 147.167ZM137.746 144.659C138.555 144.659 139.211 145.316 139.211 146.124C139.211 146.933 138.554 147.589 137.746 147.589C136.936 147.589 136.281 146.932 136.281 146.124C136.281 145.314 136.938 144.659 137.746 144.659ZM137.746 145.759C137.544 145.759 137.379 145.923 137.379 146.125C137.379 146.327 137.544 146.492 137.746 146.492C137.948 146.492 138.112 146.327 138.112 146.125C138.112 145.923 137.948 145.759 137.746 145.759ZM122.256 142.186C123.066 142.186 123.721 142.842 123.721 143.65C123.721 144.46 123.064 145.115 122.256 145.115C121.447 145.115 120.791 144.458 120.791 143.65C120.791 142.841 121.448 142.186 122.256 142.186ZM122.256 143.285C122.054 143.285 121.89 143.45 121.89 143.652C121.89 143.854 122.054 144.019 122.256 144.019C122.458 144.019 122.623 143.854 122.623 143.652C122.623 143.45 122.458 143.285 122.256 143.285ZM106.869 139.132C107.678 139.132 108.333 139.789 108.333 140.597C108.333 141.406 107.677 142.061 106.869 142.061C106.059 142.061 105.404 141.405 105.404 140.597C105.404 139.787 106.061 139.132 106.869 139.132ZM106.869 140.231C106.667 140.231 106.502 140.396 106.502 140.598C106.502 140.8 106.667 140.965 106.869 140.965C107.071 140.965 107.235 140.8 107.235 140.598C107.235 140.396 107.071 140.231 106.869 140.231ZM91.5123 135.921C92.3218 135.921 92.9772 136.578 92.9772 137.386C92.9772 138.195 92.3203 138.85 91.5123 138.85C90.7029 138.85 90.0475 138.193 90.0475 137.386C90.0475 136.576 90.7044 135.921 91.5123 135.921ZM91.5123 137.02C91.3104 137.02 91.1458 137.185 91.1458 137.387C91.1458 137.589 91.3104 137.754 91.5123 137.754C91.7143 137.754 91.8789 137.589 91.8789 137.387C91.8789 137.185 91.7143 137.02 91.5123 137.02ZM76.1052 132.964C76.9147 132.964 77.57 133.621 77.57 134.429C77.57 135.238 76.9132 135.894 76.1052 135.894C75.2957 135.894 74.6404 135.237 74.6404 134.429C74.6404 133.619 75.2972 132.964 76.1052 132.964ZM76.1052 134.064C75.9032 134.064 75.7386 134.228 75.7386 134.43C75.7386 134.632 75.9032 134.797 76.1052 134.797C76.3072 134.797 76.4718 134.632 76.4718 134.43C76.4718 134.228 76.3072 134.064 76.1052 134.064ZM60.5801 130.735C61.3896 130.735 62.0449 131.391 62.0449 132.199C62.0449 133.009 61.3881 133.664 60.5801 133.664C59.7706 133.664 59.1152 133.007 59.1152 132.199C59.1152 131.39 59.7721 130.735 60.5801 130.735ZM60.5801 131.834C60.3781 131.834 60.2135 131.999 60.2135 132.201C60.2135 132.403 60.3781 132.567 60.5801 132.567C60.7821 132.567 60.9466 132.403 60.9466 132.201C60.9466 131.999 60.7821 131.834 60.5801 131.834ZM44.9335 129.678C45.743 129.678 46.3984 130.335 46.3984 131.143C46.3984 131.953 45.7415 132.608 44.9335 132.608C44.124 132.608 43.4687 131.951 43.4687 131.143C43.4687 130.334 44.1255 129.678 44.9335 129.678ZM44.9335 130.778C44.7315 130.778 44.5669 130.943 44.5669 131.145C44.5669 131.347 44.7315 131.511 44.9335 131.511C45.1355 131.511 45.3001 131.347 45.3001 131.145C45.3001 130.943 45.1355 130.778 44.9335 130.778ZM29.2751 130.407C30.0846 130.407 30.7399 131.064 30.7399 131.872C30.7399 132.681 30.0831 133.337 29.2751 133.337C28.4656 133.337 27.8102 132.68 27.8102 131.872C27.8102 131.062 28.4671 130.407 29.2751 130.407ZM29.2751 131.507C29.0731 131.507 28.9085 131.671 28.9085 131.873C28.9085 132.075 29.0731 132.24 29.2751 132.24C29.4771 132.24 29.6417 132.075 29.6417 131.873C29.6417 131.671 29.4771 131.507 29.2751 131.507ZM13.8829 133.346C14.6924 133.346 15.3477 134.002 15.3477 134.81C15.3477 135.62 14.6909 136.275 13.8829 136.275C13.0734 136.275 12.418 135.618 12.418 134.81C12.418 134.001 13.0749 133.346 13.8829 133.346ZM13.8829 134.445C13.6809 134.445 13.5163 134.61 13.5163 134.812C13.5163 135.014 13.6809 135.178 13.8829 135.178C14.0849 135.178 14.2494 135.014 14.2494 134.812C14.2494 134.61 14.0849 134.445 13.8829 134.445ZM177.086 136.705C178.401 136.705 179.468 137.772 179.468 139.087C179.468 140.402 178.401 141.469 177.086 141.469C175.771 141.469 174.704 140.402 174.704 139.087C174.704 137.772 175.771 136.705 177.086 136.705ZM177.086 137.804C176.378 137.804 175.804 138.379 175.804 139.087C175.804 139.794 176.378 140.369 177.086 140.369C177.794 140.369 178.368 139.794 178.368 139.087C178.368 138.379 177.794 137.804 177.086 137.804ZM162.935 137.885C164.25 137.885 165.317 138.952 165.317 140.267C165.317 141.583 164.25 142.649 162.935 142.649C161.619 142.649 160.553 141.583 160.553 140.267C160.553 138.952 161.619 137.885 162.935 137.885ZM162.935 138.985C162.227 138.985 161.652 139.56 161.652 140.267C161.652 140.975 162.227 141.55 162.935 141.55C163.642 141.55 164.217 140.975 164.217 140.267C164.217 139.56 163.642 138.985 162.935 138.985ZM148.737 137.499C150.052 137.499 151.119 138.566 151.119 139.881C151.119 141.196 150.052 142.263 148.737 142.263C147.422 142.263 146.355 141.196 146.355 139.881C146.355 138.566 147.422 137.499 148.737 137.499ZM148.737 138.599C148.029 138.599 147.454 139.174 147.454 139.881C147.454 140.589 148.029 141.164 148.737 141.164C149.444 141.164 150.019 140.589 150.019 139.881C150.019 139.174 149.444 138.599 148.737 138.599ZM134.615 135.945C135.93 135.945 136.997 137.011 136.997 138.327C136.997 139.642 135.93 140.709 134.615 140.709C133.3 140.709 132.233 139.642 132.233 138.327C132.233 137.011 133.3 135.945 134.615 135.945ZM134.615 137.044C133.907 137.044 133.333 137.619 133.333 138.327C133.333 139.034 133.907 139.609 134.615 139.609C135.323 139.609 135.897 139.034 135.897 138.327C135.897 137.619 135.323 137.044 134.615 137.044ZM120.601 133.6C121.916 133.6 122.983 134.667 122.983 135.982C122.983 137.297 121.916 138.364 120.601 138.364C119.286 138.364 118.219 137.297 118.219 135.982C118.219 134.667 119.286 133.6 120.601 133.6ZM120.601 134.7C119.893 134.7 119.319 135.274 119.319 135.982C119.319 136.69 119.893 137.264 120.601 137.264C121.309 137.264 121.883 136.69 121.883 135.982C121.883 135.274 121.309 134.7 120.601 134.7ZM106.669 130.803C107.985 130.803 109.051 131.87 109.051 133.185C109.051 134.501 107.985 135.568 106.669 135.568C105.354 135.568 104.287 134.501 104.287 133.185C104.287 131.87 105.354 130.803 106.669 130.803ZM106.669 131.903C105.962 131.903 105.387 132.478 105.387 133.185C105.387 133.893 105.962 134.468 106.669 134.468C107.377 134.468 107.952 133.893 107.952 133.185C107.952 132.478 107.377 131.903 106.669 131.903ZM92.7603 127.89C94.0755 127.89 95.1424 128.957 95.1424 130.272C95.1424 131.587 94.0755 132.654 92.7603 132.654C91.4451 132.654 90.3782 131.587 90.3782 130.272C90.3782 128.957 91.4451 127.89 92.7603 127.89ZM92.7603 128.99C92.0526 128.99 91.478 129.564 91.478 130.272C91.478 130.98 92.0526 131.554 92.7603 131.554C93.468 131.554 94.0426 130.98 94.0426 130.272C94.0426 129.564 93.468 128.99 92.7603 128.99ZM78.8137 125.167C80.1289 125.167 81.1958 126.234 81.1958 127.549C81.1958 128.864 80.1289 129.931 78.8137 129.931C77.4985 129.931 76.4316 128.864 76.4316 127.549C76.4316 126.234 77.4985 125.167 78.8137 125.167ZM78.8137 126.267C78.1059 126.267 77.5314 126.841 77.5314 127.549C77.5314 128.257 78.1059 128.831 78.8137 128.831C79.5214 128.831 80.096 128.257 80.096 127.549C80.096 126.841 79.5214 126.267 78.8137 126.267ZM64.7786 122.951C66.0938 122.951 67.1607 124.018 67.1607 125.333C67.1607 126.648 66.0938 127.715 64.7786 127.715C63.4634 127.715 62.3965 126.648 62.3965 125.333C62.3965 124.018 63.4634 122.951 64.7786 122.951ZM64.7786 124.051C64.0709 124.051 63.4963 124.625 63.4963 125.333C63.4963 126.041 64.0709 126.615 64.7786 126.615C65.4863 126.615 66.0609 126.041 66.0609 125.333C66.0609 124.625 65.4863 124.051 64.7786 124.051ZM50.6374 121.588C51.9526 121.588 53.0195 122.655 53.0195 123.97C53.0195 125.285 51.9526 126.352 50.6374 126.352C49.3222 126.352 48.2553 125.285 48.2553 123.97C48.2553 122.655 49.3222 121.588 50.6374 121.588ZM50.6374 122.687C49.9297 122.687 49.3551 123.262 49.3551 123.97C49.3551 124.678 49.9297 125.252 50.6374 125.252C51.3452 125.252 51.9197 124.678 51.9197 123.97C51.9197 123.262 51.3452 122.687 50.6374 122.687ZM36.4349 121.531C37.7501 121.531 38.817 122.598 38.817 123.913C38.817 125.228 37.7501 126.295 36.4349 126.295C35.1197 126.295 34.0529 125.228 34.0529 123.913C34.0529 122.598 35.1197 121.531 36.4349 121.531ZM36.4349 122.631C35.7272 122.631 35.1526 123.205 35.1526 123.913C35.1526 124.621 35.7272 125.195 36.4349 125.195C37.1427 125.195 37.7172 124.621 37.7172 123.913C37.7172 123.205 37.1427 122.631 36.4349 122.631ZM22.3297 123.145C23.645 123.145 24.7118 124.212 24.7118 125.527C24.7118 126.843 23.645 127.91 22.3297 127.91C21.0145 127.91 19.9477 126.843 19.9477 125.527C19.9477 124.212 21.0145 123.145 22.3297 123.145ZM22.3297 124.245C21.622 124.245 21.0474 124.82 21.0474 125.527C21.0474 126.235 21.622 126.81 22.3297 126.81C23.0375 126.81 23.6121 126.235 23.6121 125.527C23.6121 124.82 23.0375 124.245 22.3297 124.245ZM184.533 125.494C186.354 125.494 187.831 126.971 187.831 128.792C187.831 130.613 186.354 132.09 184.533 132.09C182.712 132.09 181.236 130.613 181.236 128.792C181.236 126.971 182.712 125.494 184.533 125.494ZM184.533 126.594C183.32 126.594 182.335 127.579 182.335 128.792C182.335 130.006 183.32 130.99 184.533 130.99C185.747 130.99 186.731 130.006 186.731 128.792C186.731 127.579 185.747 126.594 184.533 126.594ZM169.038 127.827C170.859 127.827 172.336 129.304 172.336 131.125C172.336 132.946 170.859 134.423 169.038 134.423C167.217 134.423 165.74 132.946 165.74 131.125C165.74 129.304 167.217 127.827 169.038 127.827ZM169.038 128.927C167.825 128.927 166.84 129.911 166.84 131.125C166.84 132.338 167.825 133.323 169.038 133.323C170.252 133.323 171.236 132.338 171.236 131.125C171.236 129.911 170.252 128.927 169.038 128.927ZM153.362 128.029C155.183 128.029 156.659 129.506 156.659 131.327C156.659 133.148 155.183 134.625 153.362 134.625C151.541 134.625 150.064 133.148 150.064 131.327C150.064 129.506 151.541 128.029 153.362 128.029ZM153.362 129.129C152.148 129.129 151.164 130.113 151.164 131.327C151.164 132.54 152.148 133.525 153.362 133.525C154.575 133.525 155.56 132.54 155.56 131.327C155.56 130.113 154.575 129.129 153.362 129.129ZM137.742 126.621C139.563 126.621 141.04 128.098 141.04 129.919C141.04 131.74 139.563 133.217 137.742 133.217C135.921 133.217 134.444 131.74 134.444 129.919C134.444 128.098 135.921 126.621 137.742 126.621ZM137.742 127.721C136.529 127.721 135.544 128.705 135.544 129.919C135.544 131.132 136.529 132.117 137.742 132.117C138.956 132.117 139.94 131.132 139.94 129.919C139.94 128.705 138.956 127.721 137.742 127.721ZM122.253 124.148C124.074 124.148 125.551 125.625 125.551 127.446C125.551 129.267 124.074 130.743 122.253 130.743C120.432 130.743 118.955 129.267 118.955 127.446C118.955 125.625 120.432 124.148 122.253 124.148ZM122.253 125.248C121.039 125.248 120.055 126.232 120.055 127.446C120.055 128.659 121.039 129.644 122.253 129.644C123.466 129.644 124.451 128.659 124.451 127.446C124.451 126.232 123.466 125.248 122.253 125.248ZM106.865 121.094C108.686 121.094 110.163 122.571 110.163 124.392C110.163 126.213 108.686 127.689 106.865 127.689C105.044 127.689 103.567 126.213 103.567 124.392C103.567 122.571 105.044 121.094 106.865 121.094ZM106.865 122.194C105.652 122.194 104.667 123.178 104.667 124.392C104.667 125.605 105.652 126.59 106.865 126.59C108.079 126.59 109.063 125.605 109.063 124.392C109.063 123.178 108.079 122.194 106.865 122.194ZM91.5089 117.883C93.3299 117.883 94.8067 119.36 94.8067 121.181C94.8067 123.002 93.3299 124.478 91.5089 124.478C89.688 124.478 88.2111 123.002 88.2111 121.181C88.2111 119.36 89.688 117.883 91.5089 117.883ZM91.5089 118.983C90.2954 118.983 89.3109 119.967 89.3109 121.181C89.3109 122.394 90.2954 123.379 91.5089 123.379C92.7224 123.379 93.7069 122.394 93.7069 121.181C93.7069 119.967 92.7224 118.983 91.5089 118.983ZM76.1018 114.926C77.9227 114.926 79.3995 116.403 79.3995 118.224C79.3995 120.045 77.9227 121.522 76.1018 121.522C74.2808 121.522 72.804 120.045 72.804 118.224C72.804 116.403 74.2808 114.926 76.1018 114.926ZM76.1018 116.026C74.8883 116.026 73.9037 117.011 73.9037 118.224C73.9037 119.437 74.8883 120.422 76.1018 120.422C77.3152 120.422 78.2998 119.437 78.2998 118.224C78.2998 117.011 77.3152 116.026 76.1018 116.026ZM60.5766 112.697C62.3976 112.697 63.8744 114.174 63.8744 115.995C63.8744 117.816 62.3976 119.292 60.5766 119.292C58.7557 119.292 57.2788 117.816 57.2788 115.995C57.2788 114.174 58.7557 112.697 60.5766 112.697ZM60.5766 113.797C59.3631 113.797 58.3786 114.781 58.3786 115.995C58.3786 117.208 59.3631 118.193 60.5766 118.193C61.7901 118.193 62.7746 117.208 62.7746 115.995C62.7746 114.781 61.7901 113.797 60.5766 113.797ZM44.9301 111.64C46.751 111.64 48.2278 113.117 48.2278 114.938C48.2278 116.759 46.751 118.236 44.9301 118.236C43.1091 118.236 41.6323 116.759 41.6323 114.938C41.6323 113.117 43.1091 111.64 44.9301 111.64ZM44.9301 112.74C43.7166 112.74 42.732 113.725 42.732 114.938C42.732 116.152 43.7166 117.136 44.9301 117.136C46.1435 117.136 47.1281 116.152 47.1281 114.938C47.1281 113.725 46.1435 112.74 44.9301 112.74ZM29.2716 112.369C31.0926 112.369 32.5694 113.846 32.5694 115.667C32.5694 117.488 31.0926 118.965 29.2716 118.965C27.4507 118.965 25.9739 117.488 25.9739 115.667C25.9739 113.846 27.4507 112.369 29.2716 112.369ZM29.2716 113.469C28.0582 113.469 27.0736 114.453 27.0736 115.667C27.0736 116.88 28.0582 117.865 29.2716 117.865C30.4851 117.865 31.4697 116.88 31.4697 115.667C31.4697 114.453 30.4851 113.469 29.2716 113.469ZM13.8794 115.308C15.7004 115.308 17.1772 116.785 17.1772 118.606C17.1772 120.427 15.7004 121.903 13.8794 121.903C12.0585 121.903 10.5816 120.427 10.5816 118.606C10.5816 116.785 12.0585 115.308 13.8794 115.308ZM13.8794 116.408C12.6659 116.408 11.6814 117.392 11.6814 118.606C11.6814 119.819 12.6659 120.804 13.8794 120.804C15.0929 120.804 16.0774 119.819 16.0774 118.606C16.0774 117.392 15.0929 116.408 13.8794 116.408ZM1.5458 147.735C0.230586 148.327 -0.671673 146.327 0.643545 145.734C32.9345 131.212 67.1782 138.437 101.418 145.661C135.312 152.813 169.202 159.964 200.845 145.734C202.16 145.142 203.062 147.142 201.747 147.735C169.456 162.257 135.213 155.034 100.972 147.808C67.0792 140.656 33.189 133.505 1.5458 147.735Z" fill="#78350F"/>
</svg>
