<svg width="227" height="388" viewBox="0 0 227 388" fill="none" xmlns="http://www.w3.org/2000/svg">
<path fill-rule="evenodd" clip-rule="evenodd" d="M102.556 388L122.704 253.676H112.71L96.6314 364.653C96.4554 365.863 95.413 366.764 94.1921 366.764H28.5096C27.286 366.764 26.2463 365.863 26.0677 364.653L9.9948 253.676H0L20.1466 388H102.556Z" fill="#064E3B"/>
<path fill-rule="evenodd" clip-rule="evenodd" d="M36.9977 302.561L43.9234 348.732H78.767L87.143 292.919C77.5058 289.349 72.1177 291.962 64.8214 295.499C58.2393 298.688 50.2608 302.489 36.9977 302.561Z" fill="#064E3B"/>
<path fill-rule="evenodd" clip-rule="evenodd" d="M106.638 13.383L139.569 5.68168L136.376 2.49255e-08L106.981 6.87443L106.638 13.383Z" fill="#064E3B"/>
<path fill-rule="evenodd" clip-rule="evenodd" d="M167.25 315.9L219.394 303.706C220.666 303.408 221.372 302.424 221.209 301.729L210.508 255.969L154.048 269.173L164.749 314.933C164.908 315.624 166.017 316.188 167.25 315.9L167.25 315.9Z" fill="#064E3B"/>
<path fill-rule="evenodd" clip-rule="evenodd" d="M209.839 326.434C211.321 326.085 212.248 324.595 211.902 323.115C211.556 321.633 210.064 320.709 208.582 321.055C207.102 321.401 206.174 322.889 206.521 324.373C206.87 325.852 208.36 326.78 209.839 326.434Z" fill="#064E3B"/>
<path fill-rule="evenodd" clip-rule="evenodd" d="M224.676 343.78C225.595 343.566 226.074 343.1 226.151 342.948L218.123 309.064L170.777 320.137L178.793 354.415C178.736 354.171 179.377 354.372 180.294 354.157L185.514 352.936L181.965 337.761C181.15 334.277 183.457 330.748 187.11 329.894C190.762 329.04 194.391 331.178 195.207 334.664L198.756 349.84L224.676 343.78ZM207.46 316.256C211.59 315.29 215.732 317.864 216.698 321.994C217.666 326.121 215.09 330.266 210.962 331.232C206.829 332.198 202.693 329.623 201.727 325.495C200.761 321.365 203.327 317.222 207.46 316.256Z" fill="#064E3B"/>
<path fill-rule="evenodd" clip-rule="evenodd" d="M159.438 164.892C154.913 165.95 152.073 169.056 152.557 171.128C153.044 173.199 156.97 174.728 161.491 173.671C166.016 172.613 168.855 169.501 168.371 167.43C167.889 165.358 163.962 163.834 159.438 164.892Z" fill="#064E3B"/>
<path fill-rule="evenodd" clip-rule="evenodd" d="M165.58 191.154C161.055 192.213 158.216 195.324 158.7 197.396C159.187 199.467 163.111 200.991 167.633 199.934C172.157 198.873 174.998 195.766 174.514 193.698C174.032 191.625 170.104 190.096 165.58 191.154Z" fill="#064E3B"/>
<path fill-rule="evenodd" clip-rule="evenodd" d="M153.295 138.622C148.77 139.681 145.931 142.792 146.415 144.864C146.902 146.935 150.826 148.459 155.348 147.402C160.007 146.312 162.714 143.24 162.229 141.166C161.747 139.093 157.819 137.564 153.295 138.622Z" fill="#064E3B"/>
<path fill-rule="evenodd" clip-rule="evenodd" d="M154.431 7.26855L151.054 8.05835L194.276 192.691C196.082 200.387 194.847 207.564 190.708 213.458C186.886 218.902 180.735 222.851 173.392 224.568C166.214 226.247 159.054 225.498 153.247 222.451C146.769 219.054 142.368 213.11 140.538 205.261L97.4045 20.6006L94.0222 21.3916C92.4335 21.7631 91.4431 23.3581 91.8146 24.9468L147.401 262.626C147.773 264.215 149.365 265.203 150.953 264.831L211.367 250.703C212.958 250.331 213.948 248.736 213.578 247.15L157.988 9.47135C157.617 7.8827 156.025 6.89427 154.431 7.267L154.431 7.26855Z" fill="#064E3B"/>
<path fill-rule="evenodd" clip-rule="evenodd" d="M145.333 204.139C146.832 210.551 150.356 215.375 155.535 218.084C160.299 220.581 166.242 221.174 172.269 219.764C178.437 218.322 183.552 215.08 186.679 210.623C189.986 205.918 190.954 200.104 189.484 193.817L146.254 9.17807L102.202 19.4775L145.333 204.139ZM168.756 204.736C161.627 206.404 155.107 203.668 153.902 198.518C152.699 193.36 157.329 188.022 164.457 186.355C171.583 184.689 178.105 187.421 179.311 192.576C180.514 197.724 175.878 203.071 168.756 204.736ZM162.613 178.469C155.484 180.136 148.965 177.404 147.76 172.251C146.557 167.097 151.186 161.758 158.315 160.091C165.44 158.424 171.963 161.156 173.168 166.309C174.373 171.462 169.736 176.803 162.613 178.469ZM156.47 152.202C149.341 153.869 142.822 151.136 141.617 145.986C140.414 140.828 145.044 135.49 152.172 133.823C159.298 132.157 165.82 134.889 167.025 140.044C168.23 145.197 163.593 150.536 156.47 152.202ZM124.576 75.6944C124.266 74.3679 125.09 73.0445 126.414 72.7349L148.169 67.6444C149.493 67.3348 150.818 68.1556 151.128 69.4821L162.073 116.272C162.384 117.598 161.557 118.922 160.233 119.232L138.477 124.32C137.153 124.629 135.828 123.809 135.518 122.482L124.576 75.6944Z" fill="#064E3B"/>
<path fill-rule="evenodd" clip-rule="evenodd" d="M129.933 76.969L146.897 73.0018L156.717 114.993L139.753 118.96L129.933 76.969Z" fill="#064E3B"/>
</svg>
