<svg width="153" height="173" viewBox="0 0 153 173" fill="none" xmlns="http://www.w3.org/2000/svg">
<path d="M12.6131 102.433H83.75C84.8391 102.433 85.7415 101.531 85.7415 100.442V35.7842C85.7415 34.6691 84.8391 33.7927 83.75 33.7927H12.6131C11.498 33.7927 10.6216 34.6691 10.6216 35.7842V100.442C10.6216 101.53 11.498 102.433 12.6131 102.433ZM14.6046 37.7757H81.7584V98.4505H14.6046V37.7757Z" fill="#4C1D95"/>
<path d="M23.8452 139.157C31.1216 139.157 37.0689 133.208 37.0689 125.933C37.0689 118.631 31.1202 112.71 23.8452 112.71C16.543 112.71 10.6216 118.631 10.6216 125.933C10.6216 133.208 16.543 139.157 23.8452 139.157ZM23.8452 116.691C28.9432 116.691 33.0859 120.834 33.0859 125.932C33.0859 131.03 28.9435 135.173 23.8452 135.173C18.747 135.173 14.6046 131.03 14.6046 125.932C14.6046 120.834 18.747 116.691 23.8452 116.691Z" fill="#4C1D95"/>
<path d="M72.4912 112.706C65.2149 112.706 59.2676 118.628 59.2676 125.93C59.2676 133.206 65.2162 139.154 72.4912 139.154C79.7934 139.154 85.7421 133.205 85.7421 125.93C85.7408 118.629 79.7934 112.706 72.4912 112.706ZM72.4912 135.172C67.3933 135.172 63.2506 131.03 63.2506 125.931C63.2506 120.833 67.393 116.691 72.4912 116.691C77.5895 116.691 81.7591 120.833 81.7591 125.931C81.7578 131.029 77.5895 135.172 72.4912 135.172Z" fill="#4C1D95"/>
<path d="M53.2631 115.826H43.0735C41.9741 115.826 41.082 116.718 41.082 117.818C41.082 118.917 41.9741 119.809 43.0735 119.809H53.2631C54.3626 119.809 55.2546 118.917 55.2546 117.818C55.2546 116.718 54.3626 115.826 53.2631 115.826Z" fill="#4C1D95"/>
<path d="M53.2631 132.037H43.0735C41.9741 132.037 41.082 132.929 41.082 134.029C41.082 135.128 41.9741 136.02 43.0735 136.02H53.2631C54.3626 136.02 55.2546 135.128 55.2546 134.029C55.2546 132.929 54.3626 132.037 53.2631 132.037Z" fill="#4C1D95"/>
<path d="M146.761 30.8452V24.313C146.761 21.764 144.664 19.6662 142.115 19.6662H140.076V9.95886C140.076 4.46926 135.61 0.00129656 130.119 0.00129656L79.5145 0C74.0236 0 69.5569 4.46796 69.5569 9.95756V23.1709H9.95756C4.46132 23.1709 0 27.6322 0 33.1285V161.966C0 167.462 4.46132 171.924 9.95756 171.924H86.4051C91.8751 171.924 96.3627 167.462 96.3627 161.966V33.1285C96.3627 27.6322 91.8751 23.1709 86.4051 23.1709H73.5393V9.95756C73.5393 6.6643 76.2193 3.98303 79.5138 3.98303H130.118C133.413 3.98303 136.093 6.6643 136.093 9.95756V19.6649L134.069 19.6662C131.493 19.6662 129.422 21.764 129.422 24.313V30.8452C125.89 31.3495 123.182 34.403 123.182 38.0684V94.4415C123.182 97.9734 125.89 100.867 129.342 101.159V145.53C129.342 149.645 132.236 153.124 136.086 154.028H136.09L136.091 170.15C136.091 171.25 136.983 172.142 138.083 172.142C139.182 172.142 140.074 171.25 140.074 170.15V154.025C143.949 153.12 146.84 149.644 146.84 145.53V101.159C150.291 100.867 153 97.9719 153 94.4415V38.0684C153.001 34.403 150.266 31.3497 146.761 30.8452H146.761ZM92.3799 33.1284V161.966C92.3799 165.259 89.6986 167.941 86.4053 167.941H9.95777C6.63858 167.941 3.98323 165.259 3.98323 161.966V33.1284C3.98323 29.8352 6.63858 27.1539 9.95777 27.1539H86.4053C89.6986 27.1539 92.3799 29.8352 92.3799 33.1284ZM133.405 24.313C133.405 23.9409 133.697 23.6492 134.069 23.6492H142.114C142.459 23.6492 142.778 23.9409 142.778 24.313V30.7658H133.405V24.313ZM142.858 145.53C142.858 148.159 140.707 150.283 138.079 150.283C135.45 150.283 133.326 148.159 133.326 145.53V101.185H142.858L142.858 145.53ZM149.018 94.4408C149.018 95.9539 147.77 97.2025 146.257 97.2025H129.926C128.413 97.2025 127.165 95.9539 127.165 94.4408V38.0677C127.165 36.2357 128.652 34.7485 130.484 34.7485H145.699C147.505 34.7485 149.018 36.2357 149.018 38.0677L149.018 94.4408Z" fill="#4C1D95"/>
<path d="M40.7067 53.3361C39.0873 52.4868 37.0426 52.0616 34.4935 52.0616H25.3853C24.8809 52.0616 24.4557 52.221 24.1108 52.5932C23.7659 52.9653 23.6064 53.3892 23.6064 53.8949V78.3507C23.6064 78.8551 23.7659 79.2804 24.1108 79.6252C24.4557 79.9701 24.8809 80.1296 25.3853 80.1296C25.8896 80.1296 26.3409 79.9701 26.687 79.6252C27.0592 79.2803 27.2446 78.8551 27.2446 78.3507V69.7998H34.4937C37.0427 69.7998 39.0874 69.3746 40.7069 68.5253C42.3003 67.6489 43.4413 66.5597 44.1323 65.2321C44.822 63.9044 45.1682 62.4704 45.1682 60.93C45.1682 59.3897 44.8233 57.9298 44.1323 56.6022C43.4412 55.2745 42.3002 54.1867 40.7069 53.3361L40.7067 53.3361ZM39.8833 64.8079C38.7683 65.8438 36.8559 66.3482 34.1474 66.3482H27.2432V55.4881H34.1474C36.856 55.4881 38.7684 56.0197 39.8833 57.0544C40.9724 58.0903 41.5299 59.3908 41.5299 60.9312C41.5299 62.4702 40.9724 63.7447 39.8833 64.808V64.8079Z" fill="#4C1D95"/>
<path d="M70.8982 51.8457C70.3939 51.8457 69.9686 52.0311 69.6237 52.3773C69.2788 52.7494 69.1194 53.1734 69.1194 53.6791V64.3264H53.9573V53.6791C53.9573 53.1747 53.7719 52.7494 53.4257 52.3773C53.0536 52.0324 52.6296 51.8457 52.124 51.8457C51.6196 51.8457 51.1943 52.0311 50.8495 52.3773C50.5046 52.7494 50.3179 53.1734 50.3179 53.6791V78.3473C50.3179 78.8516 50.5033 79.2769 50.8495 79.6218C51.1944 79.9667 51.6196 80.1261 52.124 80.1261C52.6283 80.1261 53.0536 79.9667 53.4257 79.6218C53.7706 79.2769 53.9573 78.8516 53.9573 78.3473V67.7H69.1194V78.3473C69.1194 78.8516 69.2789 79.2769 69.6237 79.6218C69.9686 79.9667 70.3939 80.1261 70.8982 80.1261C71.4026 80.1261 71.8538 79.9667 72.2 79.6218C72.5721 79.2769 72.7316 78.8516 72.7316 78.3473V53.6791C72.7316 53.1747 72.5721 52.7494 72.2 52.3773C71.8538 52.0324 71.4026 51.8457 70.8982 51.8457Z" fill="#4C1D95"/>
</svg>
