<svg width="176" height="117" viewBox="0 0 176 117" fill="none" xmlns="http://www.w3.org/2000/svg">
<path d="M85.8878 87.7284C85.8878 90.0622 82.3871 90.0622 82.3871 87.7284C82.3871 85.3963 85.8878 85.3963 85.8878 87.7284Z" fill="#881337"/>
<path d="M97.9837 84.7902C97.9837 87.124 94.4848 87.124 94.4848 84.7902C94.4848 82.4581 97.9837 82.4581 97.9837 84.7902Z" fill="#881337"/>
<path d="M102.019 78.4144C102.019 79.1563 102.493 79.8077 103.146 80.0463C103.353 80.1351 103.56 80.1647 103.769 80.1647C104.748 80.1647 105.52 79.3636 105.52 78.4144C105.52 77.9111 105.312 77.4652 104.985 77.1395C104.659 76.8434 104.243 76.6658 103.769 76.6658C102.82 76.6658 102.019 77.4652 102.019 78.4144L102.019 78.4144Z" fill="#881337"/>
<path d="M64.9187 94.1042C64.9187 96.438 61.418 96.438 61.418 94.1042C61.418 91.7721 64.9187 91.7721 64.9187 94.1042Z" fill="#881337"/>
<path d="M27.5783 73.8756C28.052 73.8756 28.4979 73.6979 28.794 73.3722L25.828 71.8013C25.7984 71.9197 25.7984 72.0085 25.7984 72.127C25.8297 73.104 26.6291 73.8756 27.5783 73.8756L27.5783 73.8756Z" fill="#881337"/>
<path d="M48.9927 86.1278C49.7051 86.1278 50.3268 85.6837 50.595 85.0602L47.5106 83.3987C47.3329 83.6651 47.2441 83.9925 47.2441 84.3478C47.2424 85.3266 48.0139 86.1278 48.9927 86.1278H48.9927Z" fill="#881337"/>
<path d="M32.3846 77.6431C32.3846 78.6219 33.1858 79.3934 34.135 79.3934C35.1138 79.3934 35.8853 78.5923 35.8853 77.6431C35.8853 77.4654 35.8557 77.2878 35.7965 77.1398L33.6021 75.9537C32.9176 76.1888 32.3846 76.8419 32.3846 77.6431H32.3846Z" fill="#881337"/>
<path d="M121.503 54.3336L116.937 56.4096L115.603 57.0331L114.624 57.4772L116.463 62.8449L112.015 64.8617L110.176 59.494L107.833 60.5616L109.672 65.9293L105.787 67.7092L103.948 62.3416L101.605 63.4092L103.444 68.7769L98.996 70.7937L97.1569 65.426L94.8144 66.4936L96.6535 71.8613L92.0572 73.9669L90.218 68.5992L87.8755 69.6668L89.7147 75.0345L85.8291 76.8145L83.9899 71.4468L81.6474 72.5144L83.4866 77.8821L79.0385 79.8989L77.1993 74.5312L74.8568 75.5988L76.696 80.9665L72.7215 82.7761L70.8824 77.4084L68.5399 78.476L70.379 83.8437L67.1466 85.3258L66.0197 84.7319L63.7661 78.0596L60.4744 76.2797L62.7281 82.9519L57.4491 80.1044L55.1954 73.4321L51.9037 71.6521L54.1574 78.3244L48.6417 75.3584L46.3584 68.6862L43.0667 66.9062L45.35 73.5785L40.1598 70.7901L37.9061 64.1179L34.6144 62.3379L36.8977 69.0102L31.382 66.0442L29.1283 59.3719L25.8366 57.5919L28.1199 64.2642L22.7816 61.4167L20.5279 54.7444L17.858 53.2919L17.2345 52.9662L12.1 50.3015L0.50411 55.312L66.995 90.9896L133.691 60.591L121.503 54.3336ZM12.2187 55.7878L17.4089 53.5342L19.5146 59.6736L12.2187 55.7878ZM117.473 58.0119L122.01 60.3248L118.777 61.8069L117.473 58.0119Z" fill="#881337"/>
<path d="M79.628 90.9876C79.628 92.3722 77.552 92.3722 77.552 90.9876C77.552 89.6047 79.628 89.6047 79.628 90.9876Z" fill="#881337"/>
<path d="M41.1633 40.6323C44.455 42.0849 48.1927 42.7972 52.1948 42.7972C54.2412 42.7972 56.3468 42.6196 58.5117 42.2329L58.8966 42.1737C60.5877 41.8776 62.6341 41.5206 64.501 40.7508C64.4714 41.1061 64.4122 41.4928 64.3826 41.9073C64.353 42.381 64.2938 42.8861 64.2642 43.3894C64.2346 43.8927 64.205 44.4274 64.1754 44.9307C64.1457 45.4654 64.1161 45.9687 64.1161 46.5017C64.1161 47.005 64.0865 47.5101 64.0865 48.0134V49.4067C64.0865 49.8508 64.0865 50.2671 64.1161 50.652C64.1457 52.1637 64.1754 53.2018 64.1754 53.2018V53.3794C64.3234 54.7727 65.5687 55.8107 66.9637 55.6627C68.357 55.5147 69.395 54.2694 69.247 52.8743C69.247 52.8743 69.1582 51.8659 69.0101 50.3838C68.9805 50.0285 68.9509 49.6123 68.8917 49.1977C68.8621 48.7832 68.8325 48.3374 68.8029 47.8933C68.7733 47.4491 68.7437 46.9737 68.7141 46.4999C68.6844 46.0262 68.6845 45.5508 68.6549 45.0474V43.5949V42.172V42.0536C69.6633 42.6475 70.6717 43.1508 71.5616 43.5949L71.8577 43.7429C76.1282 45.8486 80.4579 46.9162 84.521 46.9162C85.4998 46.9162 86.4786 46.857 87.4278 46.7386C94.1295 45.8486 100.476 41.6669 104.776 35.2613C106.793 32.2656 111.241 24.6146 108.869 18.653L108.81 18.505C106.081 12.7226 97.4506 10.7948 93.8632 10.2303C86.301 9.07382 78.9461 10.8538 73.6672 15.1833C71.9168 16.6062 70.3459 18.3862 69.012 20.4324C68.2404 17.1407 66.9656 14.2042 65.2152 11.7137C61.0039 5.57419 53.7972 1.42235 45.4338 0.325095C41.489 -0.178235 31.7914 -0.801723 27.1955 4.41795L27.1067 4.53638C22.8066 10.0227 25.1491 19.424 26.3647 23.2205C28.9754 31.3209 34.3728 37.6672 41.1632 40.6318L41.1633 40.6323ZM69.9301 30.8756C69.9597 30.7276 70.019 30.6091 70.0486 30.4611L70.1374 30.1354C71.1162 26.8141 73.1034 22.1866 76.8391 19.1633H76.8687C80.9912 15.7532 86.8934 14.3583 93.0311 15.3073C97.272 15.9604 102.699 17.7386 104.124 20.6456C105.28 23.6708 102.908 28.861 100.506 32.4189C97.0665 37.5499 91.906 40.9897 86.7158 41.6723C82.8302 42.1756 78.4411 41.317 74.0525 39.1522L73.7268 39.0041C72.9257 38.6192 71.8581 38.0845 70.9089 37.4924C71.9173 36.5136 73.0441 35.594 74.5559 34.4967C78.856 31.3827 83.9572 29.2771 89.3249 28.3573C90.7182 28.1204 91.6378 26.8159 91.4009 25.4209C91.1641 24.0276 89.8596 23.108 88.4646 23.3449C82.3251 24.3829 76.4839 26.8142 71.5603 30.3743C70.9368 30.8184 70.3742 31.2643 69.8395 31.6788C69.9301 31.4106 69.9301 31.1424 69.9301 30.8759L69.9301 30.8756ZM31.0811 7.773C33.5717 5.04386 40.0072 4.80701 44.8122 5.4305C51.7231 6.32048 57.6534 9.70098 61.0339 14.6544V14.684C64.148 19.1322 64.8307 24.7087 64.8307 28.5926V28.9775V30.134C64.8307 30.1044 64.8011 30.1044 64.8011 30.0748L64.5938 29.7787C59.5815 22.3944 51.5752 19.3393 47.2749 17.6794C46.9788 17.561 46.7106 17.4722 46.4441 17.3537C45.1396 16.8504 43.6558 17.5018 43.1524 18.8062C42.6491 20.1107 43.3005 21.5946 44.6049 22.0979C44.8714 22.2164 45.1692 22.3052 45.4653 22.4236C49.499 23.9649 56.26 26.5757 60.3824 32.6262L60.5897 32.9223C61.5389 34.286 62.0718 35.0871 62.5176 36.0363C61.1539 36.6006 59.3444 36.8967 58.0105 37.1335L57.6256 37.1928C52.2284 38.1419 47.2455 37.7274 43.2118 35.9475C37.8147 33.605 33.337 28.2372 31.2312 21.6524C29.7752 17.0859 28.8556 10.7096 31.0814 7.77322L31.0811 7.773Z" fill="#881337"/>
<path d="M70.6707 96.1774C70.6707 97.562 68.5947 97.562 68.5947 96.1774C68.5947 94.7946 70.6707 94.7946 70.6707 96.1774Z" fill="#881337"/>
<path d="M115.631 73.1666C115.631 74.5512 113.555 74.5512 113.555 73.1666C113.555 71.7838 115.631 71.7838 115.631 73.1666Z" fill="#881337"/>
<path d="M45.1048 85.3832C45.1048 86.7678 43.0288 86.7678 43.0288 85.3832C43.0288 83.9986 45.1048 83.9986 45.1048 85.3832Z" fill="#881337"/>
<path d="M52.9656 87.7284C52.9656 89.113 50.8896 89.113 50.8896 87.7284C50.8896 86.3455 52.9656 86.3455 52.9656 87.7284Z" fill="#881337"/>
<path d="M24.404 74.531C24.404 75.9138 22.3279 75.9138 22.3279 74.531C22.3279 73.1463 24.404 73.1463 24.404 74.531Z" fill="#881337"/>
<path d="M91.6393 87.4609C91.6393 88.8455 89.5633 88.8455 89.5633 87.4609C89.5633 86.0763 91.6393 86.0763 91.6393 87.4609Z" fill="#881337"/>
<path d="M100.062 80.5768C100.062 81.9614 97.9856 81.9614 97.9856 80.5768C97.9856 79.1939 100.062 79.1939 100.062 80.5768Z" fill="#881337"/>
<path d="M59.2209 90.573C59.2209 91.9576 57.1449 91.9576 57.1449 90.573C57.1449 89.1884 59.2209 89.1884 59.2209 90.573Z" fill="#881337"/>
<path d="M107.039 43.954C105.823 45.3177 105.942 47.3937 107.276 48.6092C107.899 49.1735 108.699 49.4696 109.47 49.4696C110.39 49.4696 111.28 49.1143 111.931 48.3724L126.404 32.2693L152.799 27.1089C154.46 31.1722 158.462 34.0492 163.119 34.0492C169.288 34.0492 174.271 29.0368 174.271 22.8973C174.271 16.7579 169.259 11.7455 163.119 11.7455C157.781 11.7455 153.303 15.5127 152.206 20.5236L122.964 26.2466L107.039 43.954ZM163.15 18.3292C165.67 18.3292 167.717 20.3756 167.717 22.8956C167.717 25.4157 165.67 27.4621 163.15 27.4621C160.63 27.4621 158.584 25.4157 158.584 22.8956C158.584 20.3756 160.628 18.3292 163.15 18.3292Z" fill="#881337"/>
<path d="M164.848 53.063C159.924 53.063 155.743 56.2659 154.261 60.6845H144.711C142.872 60.6845 141.419 62.1667 141.419 63.9762C141.419 65.8154 142.902 67.2679 144.711 67.2679H154.112C155.447 71.9231 159.747 75.3647 164.848 75.3647C171.017 75.3647 176 70.3524 176 64.2129C176.029 58.0734 171.017 53.0629 164.848 53.0629V53.063ZM164.848 68.7813C162.328 68.7813 160.281 66.7349 160.281 64.2149C160.281 61.6947 162.328 59.6484 164.848 59.6484C167.368 59.6484 169.414 61.6948 169.414 64.2149C169.416 66.735 167.37 68.7813 164.848 68.7813Z" fill="#881337"/>
<path d="M163.141 94.3472C158.486 94.3472 154.482 97.2244 152.82 101.287L126.426 96.1271L111.953 80.024C110.737 78.6603 108.632 78.5419 107.298 79.7871C105.934 81.0028 105.816 83.1084 107.061 84.4424L123.016 102.177L152.258 107.9C153.355 112.913 157.833 116.678 163.171 116.678C169.34 116.678 174.323 111.666 174.323 105.527C174.292 99.3595 169.311 94.3471 163.142 94.3471L163.141 94.3472ZM163.141 110.066C160.621 110.066 158.575 108.019 158.575 105.499C158.575 102.979 160.621 100.933 163.141 100.933C165.661 100.933 167.708 102.979 167.708 105.499C167.708 108.019 165.661 110.066 163.141 110.066Z" fill="#881337"/>
<path d="M20.8191 52.0775L24.6454 54.1239L27.9371 55.9039L33.4528 58.8699L36.7445 60.6498L41.9347 63.4382L45.2264 65.2182L50.7422 68.1841L54.0338 69.9641L59.3128 72.8117L62.6045 74.5916L66.5197 76.6973L67.7945 76.133L70.1371 75.0654L74.1115 73.2558L76.454 72.1882L80.9021 70.1714L83.2446 69.1038L87.1302 67.3239L89.4727 66.2562L94.0691 64.1506L96.4115 63.083L100.86 61.0662L103.202 59.9986L107.088 58.2186L109.43 57.151L112.811 55.6097L113.878 55.1063L116.221 54.0387L118.711 52.9119L133.303 46.2695L123.017 40.987L119.488 44.9022L121.505 45.9402L116.522 48.1938L114.387 50.5659C113.142 51.9592 111.332 52.7604 109.463 52.7604C108.722 52.7604 107.981 52.642 107.299 52.4051L66.6978 70.9118L11.7145 41.4013L29.0054 33.9278C27.997 32.5641 27.0774 31.1099 26.2762 29.5685L0 40.8978L15.0651 48.9946L20.8191 52.0775Z" fill="#881337"/>
<path d="M106.915 36.6598C106.618 37.1039 106.291 37.5497 105.995 37.9643L107.359 38.647L110.887 34.7318L108.782 33.6346C108.101 34.791 107.477 35.829 106.915 36.6598V36.6598Z" fill="#881337"/>
<path d="M133.693 75.659L121.059 69.1646L115.157 71.8642L119.279 73.9994C119.161 74.2363 119.102 74.4731 119.102 74.7414C119.102 75.4241 119.486 75.9866 120.021 76.2827L115.157 78.5068L118.715 82.4812L133.693 75.659Z" fill="#881337"/>
<path d="M103.147 83.9609L77.4352 95.675C77.3464 94.785 76.6044 94.104 75.6848 94.104C74.7061 94.104 73.9345 94.9052 73.9345 95.8544C73.9345 96.3281 74.1122 96.7443 74.4082 97.0404L67.2014 100.332L54.5675 93.5711C54.8636 93.2454 55.0708 92.8292 55.0708 92.3555C55.0708 91.3767 54.2697 90.6051 53.3205 90.6051C52.4897 90.6051 51.7792 91.199 51.5997 91.9984L39.3212 85.4149C40.2704 85.3853 41.0124 84.6137 41.0124 83.6645C41.0124 82.6857 40.2112 81.9142 39.262 81.9142C38.3128 81.9142 37.5117 82.7153 37.5117 83.6645C37.5117 83.9902 37.6005 84.3176 37.7782 84.5841L29.5628 80.1952C29.7404 80.0175 29.8588 79.751 29.8588 79.4532C29.8588 78.8889 29.3851 78.4152 28.8208 78.4152C28.3175 78.4152 27.9013 78.7705 27.8124 79.246L19.0344 74.5314C19.5691 74.2354 19.9244 73.6415 19.9244 72.9901C19.9244 72.0113 19.1232 71.2398 18.174 71.2398C17.1952 71.2398 16.4236 72.0409 16.4236 72.9901V73.1382L12.2124 70.8845L16.4829 69.0453C16.6309 69.4302 17.0175 69.6984 17.432 69.6984C17.9963 69.6984 18.4701 69.2247 18.4701 68.6604C18.4701 68.5124 18.4404 68.3643 18.3812 68.2459L18.7661 68.0682L13.0431 64.9838L0.50509 70.3479L66.996 106.026L106.113 88.2014L104.542 86.4511C103.889 85.7091 103.443 84.8487 103.147 83.9606L103.147 83.9609Z" fill="#881337"/>
<path d="M112.724 76.2788C113.347 76.634 113.91 77.0799 114.385 77.6128L114.563 77.8201C114.445 76.9597 113.703 76.2788 112.813 76.2788H112.724V76.2788Z" fill="#881337"/>
</svg>
